<svg viewBox="0 0 280 72" fill="none" xmlns="http://www.w3.org/2000/svg">
  <g transform="translate(0, 4)">
    <path d="M28 8C28 8 20 22 20 34C20 42 23 48 28 50C33 48 36 42 36 34C36 22 28 8 28 8Z" stroke="#720016" stroke-width="2.5" stroke-linecap="round" stroke-linejoin="round"/>
    <path d="M28 50V62" stroke="#720016" stroke-width="2.5" stroke-linecap="round"/>
    <path d="M16 56C16 56 21 48 28 48C35 48 40 56 40 56" stroke="#720016" stroke-width="2.5" stroke-linecap="round"/>
    <path d="M8 64L18 54" stroke="#720016" stroke-width="2.5" stroke-linecap="round"/>
    <path d="M48 64L38 54" stroke="#720016" stroke-width="2.5" stroke-linecap="round"/>
  </g>
  <text x="62" y="38" fill="#720016" font-family="Georgia, serif" font-weight="700" font-size="32" letter-spacing="1">FLOWERS</text>
  <line x1="62" y1="48" x2="268" y2="48" stroke="#720016" stroke-width="1"/>
  <text x="140" y="66" fill="#720016" font-family="cursive" font-size="18" text-anchor="middle">In Action</text>
</svg>
